<svg width="16" height="16" viewBox="0 0 16 16" fill="none" xmlns="http://www.w3.org/2000/svg">
<rect width="16" height="16" rx="2" fill="#F59E0B"/>
<path d="M8.86502 3.75501L9.74502 5.51501C9.86502 5.76001 10.185 5.99501 10.455 6.04001L12.05 6.30501C13.07 6.47501 13.31 7.21501 12.575 7.94501L11.335 9.18501C11.125 9.39501 11.01 9.80001 11.075 10.09L11.43 11.625C11.71 12.84 11.065 13.31 9.99002 12.675L8.49502 11.79C8.22502 11.63 7.78002 11.63 7.50502 11.79L6.01002 12.675C4.94002 13.31 4.29002 12.835 4.57002 11.625L4.92502 10.09C4.99002 9.80001 4.87502 9.39501 4.66502 9.18501L3.42502 7.94501C2.69502 7.21501 2.93002 6.47501 3.95002 6.30501L5.54502 6.04001C5.81002 5.99501 6.13002 5.76001 6.25002 5.51501L7.13002 3.75501C7.61002 2.80001 8.39002 2.80001 8.86502 3.75501Z" fill="white"/>
</svg>
